<svg width="35" height="38" viewBox="0 0 35 38" fill="none" xmlns="http://www.w3.org/2000/svg">
<path fill-rule="evenodd" clip-rule="evenodd" d="M26.8008 27.1934L34.9721 36.782L33.5548 38L25.3613 28.4114C22.5416 30.552 19.3675 31.6223 15.8391 31.6223C13.6984 31.6223 11.6501 31.2052 9.69402 30.3711C7.73797 29.537 6.05498 28.4151 4.64505 27.0052C3.23512 25.5953 2.11314 23.9123 1.2791 21.9562C0.445061 20.0001 0.0280122 17.9518 0.0279541 15.8111C0.027896 13.6705 0.444945 11.6222 1.2791 9.66606C2.11326 7.70995 3.23524 6.02696 4.64505 4.61709C6.05486 3.20723 7.73785 2.08524 9.69402 1.25115C11.6502 0.417049 13.6985 0 15.8391 0C17.9797 0 20.028 0.417049 21.9842 1.25115C23.9403 2.08524 25.6233 3.20723 27.0331 4.61709C28.443 6.02696 29.5649 7.70995 30.3991 9.66606C31.2333 11.6222 31.6503 13.6705 31.6502 15.8111C31.6502 18.0108 31.2221 20.0924 30.3659 22.0559C29.5096 24.0194 28.3212 25.7319 26.8006 27.1934L26.8008 27.1934ZM15.8393 29.7621C18.3637 29.7621 20.6963 29.1383 22.8369 27.8908C24.9776 26.6433 26.6717 24.9492 27.9191 22.8086C29.1666 20.668 29.7903 18.3355 29.7904 15.811C29.7905 13.2865 29.1667 10.9539 27.9191 8.8133C26.6716 6.67269 24.9775 4.97866 22.8369 3.7312C20.6964 2.48375 18.3638 1.86002 15.8393 1.86002C13.3147 1.86002 10.9822 2.48375 8.84161 3.7312C6.70105 4.97866 5.00702 6.67269 3.75951 8.8133C2.51199 10.9539 1.88827 13.2865 1.88832 15.811C1.88838 18.3355 2.51211 20.668 3.75951 22.8086C5.0069 24.9492 6.70094 26.6433 8.84161 27.8908C10.9823 29.1383 13.3148 29.7621 15.8393 29.7621Z" />
</svg>
